<?xml version="1.0" encoding="UTF-8"?>
<svg width="57px" height="66px" viewBox="0 0 57 66" version="1.1" xmlns="http://www.w3.org/2000/svg" xmlns:xlink="http://www.w3.org/1999/xlink">
    <title>Fill 296</title>
    <g id="Page-1" stroke="none" stroke-width="1" fill="none" fill-rule="evenodd">
        <g id="Desktop-HD" transform="translate(-1257.000000, -317.000000)" fill="#1C2725">
            <g id="tree-landscape-2701" transform="translate(-34.000000, -4.000000)">
                <path d="M1346.92134,385.622689 C1341.95952,378.87479 1342.37222,373.356303 1339.21129,366.968908 C1335.63765,359.768067 1327.85256,358.168908 1322.97515,356.495798 C1323.76304,354.554622 1323.7349,352.752101 1322.7219,351.578151 C1321.7089,350.431933 1319.97367,350.108403 1317.95705,350.496639 C1316.95343,345.578992 1316.80336,337.407563 1309.84367,332.656303 C1303.88761,328.598319 1298.25045,328.117647 1292.22873,322.257143 L1291,321 C1291,321 1291.33767,321.757983 1291.78789,322.626891 C1293.25111,325.270588 1294.86441,327.516807 1297.19055,329.827731 C1299.63864,332.24958 1302.44315,334.209244 1304.59108,337.019328 C1307.09544,340.347059 1307.69574,343.554622 1307.97713,346.198319 C1308.41797,350.459664 1308.06154,354.231092 1307.99589,358.15042 L1307.53628,359.185714 L1307.07668,359.305882 C1304.99441,360.054622 1302.6964,359.509244 1300.6235,359.333613 C1299.22593,359.601681 1299.59174,361.736975 1299.67616,362.578151 C1301.01744,366.996639 1303.70002,370.07479 1307.94899,372.062185 C1308.78377,372.27479 1310.87543,372.968067 1311.37255,371.664706 C1311.53201,369.640336 1311.34441,367.329412 1312.42307,365.434454 L1312.62004,365.018487 L1313.59552,364.778151 C1317.41303,365.286555 1321.14612,365.563866 1325.22626,366.626891 C1327.85256,367.320168 1331.01349,368.401681 1333.9587,371.341176 C1336.47244,373.87395 1338.00132,376.878151 1340.06483,379.623529 C1342.03456,382.239496 1344.03242,384.152941 1346.4805,385.983193 L1348,387 L1346.92134,385.622689" id="Fill-296"></path>
            </g>
        </g>
    </g>
</svg>