<?xml version="1.0" encoding="UTF-8"?>
<svg width="90px" height="62px" viewBox="0 0 90 62" version="1.1" xmlns="http://www.w3.org/2000/svg" xmlns:xlink="http://www.w3.org/1999/xlink">
    <title>Fill 295</title>
    <g id="Page-1" stroke="none" stroke-width="1" fill="none" fill-rule="evenodd">
        <g id="Desktop-HD" transform="translate(-229.000000, -152.000000)" fill="#1C2725">
            <g id="tree-landscape-2701" transform="translate(-34.000000, -4.000000)">
                <path d="M351.153751,157.196983 C342.230211,162.714329 336.365106,163.013575 328.401989,166.791554 C319.431828,171.065158 315.207833,178.602413 311.832366,183.40905 C309.967468,182.904072 307.990676,183.156561 306.386863,184.269382 C304.829673,185.354148 303.906548,187.046757 303.701409,188.888989 C298.022793,190.46003 289.08993,191.619608 281.695607,198.773454 C275.373601,204.889291 273.051803,210.266365 264.753005,216.690799 C263.811231,217.420211 263,218 263,218 C263,218 263.923125,217.588537 265.01409,217.055505 C268.361583,215.344193 271.317447,213.539367 274.571695,211.061237 C277.993784,208.452187 281.014919,205.562594 284.77269,203.177979 C289.17385,200.400603 292.866349,199.437406 295.831538,198.848265 C300.615002,197.894419 304.59656,197.763499 308.839204,197.333333 L309.808952,197.641931 L309.799627,198.053394 C309.939494,199.92368 308.615416,202.158673 307.766888,204.141176 C307.617696,205.422323 310.051388,204.81448 310.993162,204.627451 C316.224202,202.822624 320.429548,199.895626 323.954206,195.640724 C324.457729,194.827149 325.875052,192.769834 324.616245,192.461237 C322.452963,192.564103 319.888728,193.031674 318.173021,192.246154 L317.790717,192.115234 L317.837339,191.226848 C319.618317,187.551735 321.100912,184.007541 323.562578,180.023831 C325.157066,177.461538 327.338997,174.356863 331.488396,171.196078 C335.031703,168.521569 338.808123,166.698039 342.444675,164.406938 C345.913386,162.228054 348.626813,160.095928 351.414836,157.561689 C352.291339,156.729412 353,156 353,156 C353,156 352.17012,156.561086 351.153751,157.196983" id="Fill-295"></path>
            </g>
        </g>
    </g>
</svg>