<?xml version="1.0" encoding="UTF-8"?>
<svg width="38px" height="38px" viewBox="0 0 38 38" version="1.1" xmlns="http://www.w3.org/2000/svg" xmlns:xlink="http://www.w3.org/1999/xlink">
    <title>002-dribbble</title>
    <g id="Page-1" stroke="none" stroke-width="1" fill="none" fill-rule="evenodd">
        <g id="Desktop-HD" transform="translate(-1269.000000, -2242.000000)" fill="#FFFFFF" fill-rule="nonzero">
            <g id="Group-7" transform="translate(1117.000000, 2242.000000)">
                <g id="002-dribbble" transform="translate(152.000000, 0.000000)">
                    <path d="M25.919175,36.6799706 C25.9508727,36.6704722 25.9809854,36.6578075 26.0126831,36.6467259 C45.3720278,28.9640372 40.0167084,0 19.0185948,0 C8.48070842,0 0,8.58029525 0,18.9969636 C0,32.1792733 13.3669024,41.5859365 25.919175,36.6799706 Z M8.36976661,31.7550078 C9.72008685,29.4880368 14.089609,23.0923924 21.548068,20.8855784 C23.1075927,24.8575269 24.2011619,29.491203 24.308934,34.7454465 C18.6572415,36.6435598 12.6964969,35.366014 8.36976661,31.7550078 Z M26.6466363,33.7544382 C26.4390166,28.7059951 25.4072578,24.229044 23.9364865,20.3504973 C27.2362127,19.8359962 31.0557805,20.1795246 35.3872655,21.9129976 C34.4664485,27.0754224 31.1619677,31.4146455 26.6466363,33.7544382 L26.6466363,33.7544382 Z M35.6360921,19.45764 C30.8655945,17.6671762 26.6609002,17.4439619 23.0220091,18.137351 C22.4593756,16.8708868 21.8682143,15.653498 21.2421856,14.5326772 C26.825728,12.3052832 30.1254542,9.59030048 31.6025651,8.15286356 C34.2096975,11.1670485 35.7581281,15.0693414 35.6360921,19.45764 L35.6360921,19.45764 Z M29.9146648,6.4621338 C28.5706841,7.7396796 25.4056729,10.3201005 19.9932978,12.4303465 C17.3402038,8.2383499 14.5032635,5.28115589 12.7060062,3.6252539 C18.4559614,1.26013192 25.0871115,2.27013716 29.9146648,6.4621338 Z M10.4332842,4.78565176 C11.7899439,5.97771123 14.7679389,8.83992041 17.6413316,13.2662129 C13.6949732,14.5358433 8.74696875,15.4682776 2.72916836,15.5996733 C3.68643763,11.0182389 6.54556639,7.13652601 10.4332842,4.78565176 Z M2.42804061,17.9837922 C9.16379295,17.8745597 14.6157901,16.8123128 18.9250868,15.3748759 C19.5210027,16.4181258 20.0868059,17.5547775 20.6304208,18.7357554 C13.1260002,21.1230405 8.4363317,27.2859721 6.64065937,30.0690273 C3.74349342,26.8395435 2.14593145,22.6253837 2.42804061,17.9837922 Z" id="Shape"></path>
                </g>
            </g>
        </g>
    </g>
</svg>