<?xml version="1.0" encoding="UTF-8"?>
<svg width="36px" height="27px" viewBox="0 0 36 27" version="1.1" xmlns="http://www.w3.org/2000/svg" xmlns:xlink="http://www.w3.org/1999/xlink">
    <title>003-envelope</title>
    <g id="Page-1" stroke="none" stroke-width="1" fill="none" fill-rule="evenodd">
        <g id="Desktop-HD" transform="translate(-1117.000000, -2248.000000)" fill="#FFFFFF" fill-rule="nonzero">
            <g id="Group-7" transform="translate(1117.000000, 2242.000000)">
                <g id="003-envelope" transform="translate(0.000000, 6.000000)">
                    <path d="M32.6249765,0 L3.37502348,0 C1.51392107,0 0,1.51391896 0,3.37501879 L0,23.6249812 C0,25.486081 1.51392107,27 3.37502348,27 L32.6249765,27 C34.4860789,27 36,25.486081 36,23.6249812 L36,3.37501879 C36,1.51391896 34.4860789,0 32.6249765,0 Z M32.6249765,2.24998748 C32.7778265,2.24998748 32.9232369,2.28169967 33.0561727,2.33708328 L18,15.3863493 L2.94375211,2.33708328 C3.076688,2.28177481 3.22209837,2.24998748 3.37494834,2.24998748 L32.6249765,2.24998748 Z M32.6249765,24.7499374 L3.37502348,24.7499374 C2.75430532,24.7499374 2.24999061,24.2456985 2.24999061,23.6249061 L2.24999061,4.71422011 L17.2628033,17.7253113 C17.4748694,17.908746 17.7374347,17.999975 18,17.999975 C18.2625653,17.999975 18.5251306,17.9088212 18.7371967,17.7253113 L33.7500094,4.71422011 L33.7500094,23.6249812 C33.7500094,24.2456985 33.2456947,24.7499374 32.6249765,24.7499374 L32.6249765,24.7499374 Z" id="Shape"></path>
                </g>
            </g>
        </g>
    </g>
</svg>