<?xml version="1.0" encoding="UTF-8"?>
<svg width="1486px" height="549px" viewBox="0 0 1486 549" version="1.1" xmlns="http://www.w3.org/2000/svg" xmlns:xlink="http://www.w3.org/1999/xlink">
    <title>Group 9</title>
    <g id="Page-1" stroke="none" stroke-width="1" fill="none" fill-rule="evenodd">
        <g id="Desktop-HD" transform="translate(23.000000, -358.000000)" fill="#4B6A66">
            <g id="tree-landscape-2701" transform="translate(-34.000000, -4.000000)">
                <g id="Group-293" transform="translate(12.000000, 299.000000)">
                    <g id="Group-9" transform="translate(-1.000000, 63.000000)">
                        <path d="M75.1669985,438.080922 C95.729042,441.940998 116.39594,445.475527 137.146723,448.684506 C159.124307,451.726061 180.661501,456.079112 201.76879,461.734357 C242.085494,473.333191 279.665486,490.364036 316.857515,506.799593 C334.02226,514.380226 351.218462,521.942256 368.163012,529.811232 C386.764269,538.470826 405.701061,544.414415 425.8332,549 L1486,549 L1486,67.0112598 C1482.25668,64.1185275 1478.64967,61.1978909 1475.11606,58.0912266 C1464.05387,48.3805752 1450.80021,41.3301214 1438.47976,32.7542396 C1431.24478,27.7221875 1428.2669,21.750695 1419.29132,18.913771 C1415.95693,17.8534125 1414.58334,18.3742903 1410.89244,16.8302596 C1408.35496,15.7699011 1406.52,13.8259105 1403.60503,13.1097035 C1398.67685,11.9005227 1394.91256,13.3701424 1391.08536,14.8397621 C1387.1533,16.3558887 1383.15833,17.8627139 1377.77927,16.4675053 C1373.1342,15.2769274 1366.53883,10.5704239 1363.36172,7.61258185 C1356.6615,1.41785596 1358.15044,0.459812766 1345.85096,0.571429448 C1339.84277,0.62723779 1333.58294,0.459812766 1327.23921,0.292387741 C1314.36303,-0.0517636969 1301.15132,-0.386613745 1289.10349,1.12951286 C1279.97063,2.28288525 1271.63467,2.21777552 1262.40744,2.78516032 C1250.86291,3.48276459 1242.15996,14.9699815 1232.99564,19.8904169 C1220.91636,26.3641845 1208.533,23.65748 1195.13254,21.201913 C1188.63154,20.011335 1178.62838,21.4716533 1171.88621,21.8995172 C1162.11374,22.5227104 1152.62437,23.2947258 1142.85189,23.6760828 C1133.77146,24.038837 1130.66776,24.4108926 1123.25452,25.4619497 C1119.18615,26.0479373 1115.317,25.9642248 1111.343,25.8805123 C1108.99425,25.8340053 1106.60356,25.778197 1104.09753,25.8712109 C1096.95691,26.113047 1087.69822,26.922268 1081.69004,30.1870559 C1073.07097,34.884258 1068.95017,42.0556299 1058.71633,45.1715956 C1041.36285,50.4547852 1024.36587,60.2863547 1009.64424,69.0203601 C983.451494,84.5722846 948.73404,90.3112424 917.330001,97.5384226 C889.763651,103.863368 859.418647,108.551269 832.177347,116.429546 C818.29456,120.457048 819.647188,120.317527 811.877441,125.851854 C803.625361,131.71173 793.643176,135.674122 783.54565,139.310966 C775.754932,142.119986 768.677227,144.808088 761.326899,148.119383 C745.934202,155.05822 730.908496,159.122927 714.173656,164.368911 C682.329227,174.367906 651.386549,185.548177 619.154157,194.635635 C610.168093,197.184216 602.440288,202.104651 593.957527,205.527563 C564.587673,217.396137 535.867919,230.176247 506.676318,242.156438 C495.86578,246.5839 486.019906,252.787927 475.576359,257.726965 C452.351001,268.684003 425.686403,275.89258 400.563172,283.928981 C380.04307,290.486461 362.354051,299.090247 340.890255,303.210763 C289.049999,313.153949 234.326233,321.701927 184.604045,336.891097 C172.965152,340.444228 162.62646,345.913446 150.578634,349.345659 C125.665113,356.451921 98.990029,358.65635 73.6151462,364.692953 C65.0589873,366.720656 57.8030291,369.483169 51.4278519,374.431508 C35.7310752,386.579124 33.6549484,410.279066 45.9439413,424.184645 C52.8014509,431.942004 64.2725757,434.760325 75.1669985,438.080922" id="Fill-291"></path>
                        <path d="M1486,549 L1486,487.841176 C1479.27939,485.647637 1472.37005,486.735112 1465.3349,484.708877 C1460.24988,483.240322 1455.74151,481.316328 1450.43632,480.108023 C1442.03817,478.18403 1434.99254,475.600116 1427.24443,472.161094 C1418.94065,468.489706 1409.72471,465.599068 1402.84682,460.524187 C1391.19846,451.935927 1368.99213,446.098884 1368.3316,431.506277 C1365.69997,430.948598 1363.14173,431.088017 1360.52059,431.227437 C1359.23099,431.301795 1357.92041,431.366857 1356.57839,431.357562 C1344.24853,431.208848 1332.17029,425.929484 1322.89144,420.083147 C1316.89427,416.300223 1315.47885,413.14004 1307.94044,412.60095 C1296.1348,411.755137 1290.84009,413.372407 1279.78935,408.120927 C1270.01772,403.4736 1261.52522,398.584612 1250.85192,395.14559 C1240.89157,391.92964 1234.38065,392.784748 1223.88559,391.77163 C1215.39308,390.953701 1207.51916,388.453439 1200.24287,385.051595 C1195.4619,382.820879 1190.10428,379.772232 1184.58939,378.6104 C1180.83592,377.820355 1176.99856,378.052721 1173.17169,378.285087 C1170.04729,378.47098 1166.93337,378.666168 1163.87187,378.303677 C1143.31162,375.859183 1140.21867,356.656427 1127.0081,347.101523 C1121.51418,343.142 1115.57991,340.056175 1108.93269,337.425788 C1101.19507,334.377141 1096.00521,334.405025 1087.98451,334.432909 C1086.99896,334.442204 1085.98195,334.442204 1084.91253,334.442204 C1070.08733,334.405025 1055.96461,332.183603 1042.9847,326.420917 C1026.91185,319.282623 1027.58286,310.127388 1020.54771,298.890152 C1014.94895,289.957989 1003.19574,286.611913 990.981204,288.740389 C984.984026,289.790685 981.041825,293.229707 975.810022,294.781914 C971.857336,295.953041 966.457779,295.190879 962.274433,295.181585 C960.859016,295.181585 959.370206,295.237352 957.860427,295.29312 C955.260252,295.395362 952.597169,295.488308 950.185717,295.274531 C945.970917,294.902745 942.479553,293.341243 938.34863,292.820742 C931.313479,291.93775 922.569342,291.287124 915.460799,290.794508 C907.366706,290.227534 907.26186,290.785213 902.638162,286.007761 C899.083891,282.327078 893.684334,277.410206 888.871913,274.733345 C885.485395,272.837236 885.789448,273.469272 882.329537,272.707111 C879.918085,272.177316 879.519671,272.809352 879.383371,273.441388 C879.152711,274.48239 879.635001,275.523391 873.061172,271.368681 C869.810953,269.295973 868.122936,264.713708 864.526726,263.05926 C862.670956,262.213446 846.136779,262.436518 848.915192,262.65959 C831.972116,261.274686 812.313535,256.441466 799.469929,247.676607 C788.230463,240.008518 783.082536,229.245308 777.829763,218.826001 C774.873113,212.970369 771.895493,199.167807 762.553735,198.080333 C754.616911,197.160162 748.462464,198.321994 740.232072,195.914678 C723.813225,191.090753 713.223803,180.14165 701.093148,170.967827 C695.934736,167.073366 691.038439,163.234674 686.278441,159.05208 C675.217213,149.348461 661.954223,142.303113 649.634846,133.733442 C642.410973,128.705034 639.433353,122.747161 630.458556,119.902997 C627.12446,118.843406 625.761465,119.354612 622.06041,117.820994 C619.512658,116.761404 617.688341,114.818821 614.773629,114.103132 C609.845878,112.894827 606.081915,114.363383 602.255045,115.831938 C598.333813,117.337672 594.328705,118.852701 588.939633,117.458503 C584.30545,116.259492 577.721136,111.556397 574.52334,108.609992 C567.83418,102.419752 569.312505,101.471697 557.024582,101.573939 C551.016919,101.629707 544.757627,101.462403 538.414458,101.295099 C525.539398,100.951197 512.328832,100.607295 500.271569,102.131618 C491.149987,103.284155 482.804264,103.219092 473.577837,103.786066 C462.044803,104.483165 453.342604,115.962063 444.179084,120.869641 C432.090368,127.348015 419.718567,124.64327 406.308794,122.189482 C399.808357,120.999766 389.82704,122.459027 383.074972,122.886581 C373.313832,123.509322 363.814805,124.280779 354.04318,124.671154 C344.963537,125.024351 341.860102,125.396137 334.447507,126.446433 C330.358522,127.031996 326.479228,126.948344 322.484605,126.864693 C320.146544,126.808925 317.77703,126.762451 315.292185,126.846103 C308.162673,127.097059 298.883823,127.896399 292.886645,131.168117 C284.268323,135.871212 280.147885,143.028096 269.914938,146.141805 C252.562964,151.421169 235.567465,161.245618 220.857604,169.982593 C194.656648,185.51396 159.942215,191.258057 128.530424,198.461413 C100.966472,204.800368 70.634592,209.484873 43.4061468,217.348151 C29.5035983,221.363441 30.8665933,221.233316 23.0975221,226.754341 C16.2720628,231.60615 8.27233088,235.128824 0,238.270417 L0,549 L1486,549" id="Fill-292"></path>
                    </g>
                </g>
            </g>
        </g>
    </g>
</svg>