<?xml version="1.0" encoding="UTF-8"?>
<svg width="1438px" height="438px" viewBox="0 0 1438 438" version="1.1" xmlns="http://www.w3.org/2000/svg" xmlns:xlink="http://www.w3.org/1999/xlink">
    <title>Fill 1029</title>
    <g id="Page-1" stroke="none" stroke-width="1" fill="none" fill-rule="evenodd">
        <g id="Desktop-HD" transform="translate(0.000000, -532.000000)" fill="#131917">
            <g id="tree-landscape-2701" transform="translate(-34.000000, -4.000000)">
                <g id="Group-1030" transform="translate(0.000000, 502.000000)">
                    <path d="M1472,101.59736 C1462.38661,98.1372556 1452.38868,95.1135606 1438.65972,96.4227893 C1435.44833,91.8249026 1427.39387,92.8535823 1421.42837,91.4352512 C1416.36705,88.084249 1411.51359,85.9177871 1405.63123,84.795591 C1397.62874,83.2525713 1388.99227,83.3305016 1380.34542,83.4084319 C1370.81517,83.4863622 1361.26414,83.5642925 1352.50296,81.4757609 C1345.11364,79.7145365 1339.49111,75.4127848 1332.40318,73.1683926 C1325.36722,70.814898 1317.01137,69.9420788 1310.86919,66.5287324 C1289.21048,65.5779829 1273.30941,60.8398217 1252.00406,63.1933162 C1249.1876,58.7045319 1239.78207,61.8529154 1236.20693,58.2213641 C1231.34307,58.455155 1226.15704,58.2992944 1220.65922,58.1434338 C1214.278,57.9564012 1207.47068,57.7849545 1200.31001,58.2213641 C1183.41123,59.2656299 1161.69016,56.8342051 1148.62634,63.1933162 C1144.30292,65.31302 1134.67913,71.8747499 1127.08196,73.1683926 C1113.14514,79.7301225 1101.58829,89.0817566 1082.57976,89.7831291 C1078.52654,92.8379963 1076.60387,98.3554604 1069.65105,98.0904974 C1054.25923,107.940885 1036.50823,112.94401 1017.95699,118.009478 C999.852637,122.965844 980.293286,129.62109 959.091864,129.636676 C954.560579,134.125461 950.320295,132.520097 946.173546,134.608628 C937.059013,134.390424 926.001016,144.131709 916.023876,144.583705 C909.434807,144.895426 902.294916,140.546916 894.489882,139.611753 C890.187241,139.081827 885.718313,139.300032 881.332529,139.533822 C877.455994,139.736441 873.641817,139.923474 870.077068,139.611753 C866.075819,139.237687 863.737427,136.759504 860.027178,136.291923 C855.236072,135.66848 849.665502,137.180328 843.803933,138.707761 C838.784184,140.01699 833.566971,141.310633 828.443294,141.263875 C821.293011,141.201531 815.940691,137.569979 808.333122,137.944045 C805.527051,138.068733 804.352659,139.689683 802.596266,139.611753 C786.684807,138.801278 771.137097,132.333064 755.215244,139.611753 C750.912603,138.91038 748.293603,138.068733 745.165354,137.944045 C741.87082,137.80377 741.808462,137.80377 737.983892,139.611753 C729.118788,142.479587 719.702862,142.884825 709.268436,146.251413 C706.722187,147.077474 704.414973,149.181592 702.086974,149.571243 C693.450512,151.00516 684.221658,150.210271 674.805732,151.223365 C658.291487,153.000176 641.060135,154.153544 623.122068,154.558781 C618.17507,154.667884 613.643785,154.387335 609.258001,154.122372 C601.89986,153.670376 594.967827,153.21838 587.22515,154.558781 C583.629223,155.182223 581.810473,156.89669 578.609474,157.878611 C577.736474,158.143574 576.769939,158.0033 575.793011,157.847439 C574.774511,157.707165 573.766404,157.551304 572.862226,157.878611 C570.430298,158.720258 566.927906,163.09994 561.378122,162.850563 C554.373338,162.554428 546.121412,155.213396 538.409914,151.223365 C530.168381,146.968372 521.583884,142.401657 513.9971,141.263875 C508.343388,140.422228 502.606532,141.622354 496.786534,142.82248 C491.579714,143.897918 486.310537,144.973356 480.979003,144.583705 C473.215541,144.022607 466.241935,139.159757 458.000402,137.944045 C444.822263,135.995788 430.261875,137.28943 417.800842,136.291923 C414.8077,136.042546 414.069808,134.858005 412.053594,134.608628 C410.785666,134.468354 409.320273,134.951522 408.187452,135.43469 C407.179346,135.871099 406.441453,136.291923 406.316739,136.291923 C388.804779,135.247657 374.566569,131.148524 358.935717,126.316846 C347.29572,122.716467 335.447866,123.012602 324.473012,118.009478 L323.038799,114.689648 C315.171408,110.590515 301.068305,114.144136 294.323343,104.714572 C279.679811,109.546249 264.319173,106.475796 249.810748,104.714572 C242.982643,103.919683 235.406253,102.54811 228.276755,101.410328 C225.190077,100.895988 221.5214,98.5580791 218.226865,98.0904974 C216.304187,97.8099484 214.391902,97.981395 212.562759,98.1684277 C210.473796,98.3554604 208.499153,98.5580791 206.742761,98.0904974 C200.953941,96.5007196 196.755228,92.2924843 190.945623,89.7831291 C172.706164,81.9433426 147.794492,80.7899744 129.201676,71.5162706 C124.556071,69.1939481 119.993608,65.4844666 113.414931,63.1933162 C110.702396,62.2737389 107.605326,62.58546 104.799255,61.5411942 C102.003577,60.5125145 100.434256,57.4576473 97.6177927,56.5692421 C88.9917238,53.8260961 78.8171196,55.7899393 73.2153713,46.5941658 C56.7634832,42.9314424 45.8405935,32.8472637 24.3897426,34.9669674 C19.515494,33.5953944 14.8802811,29.6677081 10.0372111,28.3273072 C8.48867581,27.9064837 6.64914063,28.0935163 4.81999831,28.2961351 C3.11557023,28.4675817 1.43192786,28.6390283 -0.0126788587,28.3273072 L-1,28 L-1,472 L1472,472 L1472,101.59736 Z" id="Fill-1029"></path>
                </g>
            </g>
        </g>
    </g>
</svg>