<?xml version="1.0" encoding="UTF-8"?>
<svg width="1440px" height="418px" viewBox="0 0 1440 418" version="1.1" xmlns="http://www.w3.org/2000/svg" xmlns:xlink="http://www.w3.org/1999/xlink">
    <title>Fill 289</title>
    <g id="Page-1" stroke="none" stroke-width="1" fill="none" fill-rule="evenodd">
        <g id="Desktop-HD" transform="translate(0.000000, -295.000000)" fill="#6E9894">
            <g id="tree-landscape-2701" transform="translate(-34.000000, -4.000000)">
                <g id="Group-293" transform="translate(12.000000, 299.000000)">
                    <path d="M1476.49701,181.424673 C1469.27314,178.988296 1447.89508,173.120534 1447.89508,173.120534 C1443.95288,171.976739 1427.51307,169.01031 1420.93924,168.545353 C1414.36541,168.098994 1400.22171,163.979471 1396.94004,163.756291 C1393.6374,163.514513 1384.75696,161.236222 1380.81476,160.315606 C1376.87256,159.40429 1350.89178,152.550817 1348.26015,151.86268 C1345.63901,151.174544 1331.49532,146.831841 1326.56756,147.06432 C1321.62933,147.287499 1310.44229,148.663773 1304.20396,148.886953 C1297.95515,149.119432 1282.93076,149.57509 1282.93076,149.57509 C1278.10785,148.663773 1276.14724,146.683055 1274.38583,146.376183 C1272.6349,146.069311 1259.91711,141.187258 1258.16619,141.038472 C1256.41526,140.889685 1244.57818,136.47259 1241.50619,136.47259 C1238.43421,136.47259 1227.03748,131.897409 1226.38744,131.441751 C1225.71642,130.976793 1220.24347,129.302946 1218.0522,129.907391 C1215.86092,130.521135 1211.25819,128.540416 1210.59766,127.777886 C1209.94762,127.015356 1205.56507,125.341509 1203.14313,125.648381 C1200.74216,125.955253 1198.99124,124.885851 1195.25873,124.272107 C1191.5367,123.667663 1189.11477,120.766328 1188.23406,119.54814 C1187.36384,118.329951 1177.71803,118.023079 1173.76535,117.725507 C1169.82315,117.418635 1163.24932,109.188888 1157.98606,108.882017 C1152.73329,108.575145 1124.67656,96.9977049 1115.90097,96.9977049 C1107.13586,96.9977049 1082.80116,86.9360263 1077.97825,84.7972221 C1073.15535,82.6677172 1063.94989,76.4186894 1061.53844,75.4980737 C1059.12699,74.5867572 1060.65773,74.1310989 1058.02611,72.7641241 C1055.39448,71.3878501 1051.67245,71.8435084 1047.93994,70.9321919 C1044.21792,70.0208753 1040.05554,69.2583451 1038.08444,69.2583451 C1036.11334,69.2583451 1033.47123,67.5751993 1030.8396,67.5751993 C1028.21845,67.5751993 1025.36665,65.1388224 1021.64463,64.6831641 C1017.91212,64.2275059 1014.19009,61.4842571 1011.11811,59.9591967 C1008.05661,58.4341364 997.414769,59.8011112 996.219527,59.9591967 C995.013801,60.1079831 992.916885,62.9256251 991.501468,63.7718476 C990.432041,64.3948905 988.565786,64.3855914 986.951161,64.3669931 C986.416448,64.3669931 985.913188,64.3576939 985.462351,64.3762922 C983.711427,64.4599846 982.736362,65.9757458 982.296009,66.0501389 C981.855657,66.1338313 979.003852,67.807678 977.682796,68.6446014 C976.372224,69.4815247 973.300243,70.9321919 971.433988,71.0809782 L970.584737,71.2297646 L970.259716,71.127474 C964.671436,69.063063 960.729235,69.5280205 952.509327,68.3842252 C944.289419,67.2404299 923.896918,57.4112301 920.290224,54.8911609 C918.382031,53.5706818 916.746437,54.147229 915.299565,54.7237762 C913.988993,55.2445285 912.825205,55.7559817 911.734809,54.8911609 C909.428203,53.0685278 903.189879,49.4046633 899.572701,49.4046633 C895.945037,49.4046633 892.988387,42.7743705 887.725129,41.6305752 C882.461872,40.48678 875.237998,40.9517374 871.62082,38.6641469 C868.003641,36.3765564 843.99396,20.1402432 840.05176,18.7732684 C836.099074,17.3969945 834.46348,14.8862244 831.50683,14.8862244 C828.550179,14.8862244 822.626393,16.2531992 820.655293,14.8862244 C818.673708,13.5099504 815.612212,11.9941892 813.756442,11.8361037 C811.890187,11.6873173 808.818206,10.2366502 807.49715,9.39972682 C806.186577,8.56280347 803.334773,6.88895675 802.89442,6.80526442 C802.454068,6.73087123 801.479003,5.20581089 799.717594,5.1314177 C799.277242,5.11281941 798.763497,5.11281941 798.228784,5.12211855 C796.624644,5.1314177 794.758389,5.150016 793.688962,4.52697306 C792.26306,3.68075055 790.176629,0.863108582 788.970903,0.714322207 C787.765177,0.556236684 777.133816,-0.810738132 774.061835,0.714322207 C771.000339,2.23938255 767.278314,4.98263133 763.545805,5.4382896 C759.82378,5.89394787 756.961491,8.33032476 754.340347,8.33032476 C751.708718,8.33032476 749.077089,10.0134706 747.105989,10.0134706 C745.134888,10.0134706 740.972512,10.7760008 737.240002,11.6873173 C733.517978,12.5986339 729.785468,12.1429756 727.15384,13.5099504 C724.532696,14.8862244 726.063444,15.3418827 723.651991,16.2531992 C721.240538,17.1738149 712.03508,23.4228426 707.212175,25.5523476 C702.38927,27.6911517 678.054568,37.7435312 669.289462,37.7435312 C660.513871,37.7435312 632.457144,49.3302701 627.204372,49.637142 C621.941114,49.9440139 615.367285,58.1737602 611.414599,58.471333 C607.472399,58.7782049 597.826588,59.0850768 596.945884,60.3032652 C596.065179,61.5214537 593.653727,64.4134888 589.931702,65.0272326 C586.209677,65.6409764 584.448269,66.7103785 582.036816,66.4035066 C579.625363,66.0966347 575.24281,67.7704814 574.582282,68.5330116 C573.932238,69.2955417 569.319025,71.2762604 567.138233,70.6625166 C564.946956,70.0580719 559.463523,71.7319186 558.802994,72.1875769 C558.152951,72.6525343 546.745731,77.2184162 543.684235,77.2184162 C540.612254,77.2184162 528.775167,81.6448108 527.013758,81.7935972 C525.262834,81.9423836 512.545043,86.8244365 510.794118,87.1313084 C509.043194,87.4381803 507.072094,89.4095998 502.249189,90.3302154 C502.249189,90.3302154 487.235275,89.8745572 480.986467,89.6420785 C474.73766,89.4095998 463.561101,88.0426249 458.622866,87.8194454 C453.695115,87.5869667 439.551421,91.929669 436.930277,92.617806 C434.298648,93.2966438 408.317868,100.159415 404.375667,101.070732 C400.422981,101.991348 391.542545,104.278938 388.260873,104.502118 C384.968716,104.734596 370.835506,108.84482 364.251192,109.300478 C357.677363,109.756136 341.237547,112.731864 337.295346,113.875659 C337.295346,113.875659 315.917295,119.743422 308.682937,122.189098 C301.448579,124.625475 252.789659,146.115807 233.057686,151.137347 C213.325713,156.168186 194.254269,160.743367 190.312068,163.030958 C186.369867,165.318548 150.848122,180.857425 146.905921,182.233699 C142.96372,183.600674 106.351579,195.643071 100.658454,197.781875 C94.9548444,199.91138 66.4577654,213.330051 61.6348602,214.845813 C56.811955,216.370873 8.15303531,238.009991 5.08105438,239.535052 C4.18986538,239.981411 1.93568143,241.450676 -1,243.357002 L0,417 C30.4891485,418.329778 1477.51401,415.68882 1485,417 L1485,184.781666 C1480.93198,183.117118 1477.92291,181.908229 1476.49701,181.424673 Z" id="Fill-289"></path>
                </g>
            </g>
        </g>
    </g>
</svg>