<?xml version="1.0" encoding="UTF-8"?>
<svg width="1438px" height="382px" viewBox="0 0 1438 382" version="1.1" xmlns="http://www.w3.org/2000/svg" xmlns:xlink="http://www.w3.org/1999/xlink">
    <title>Fill 1027</title>
    <g id="Page-1" stroke="none" stroke-width="1" fill="none" fill-rule="evenodd">
        <g id="Desktop-HD" transform="translate(0.000000, -526.000000)" fill="#1C2725">
            <g id="tree-landscape-2701" transform="translate(-34.000000, -4.000000)">
                <g id="Group-1030" transform="translate(0.000000, 502.000000)">
                    <path d="M1459.73643,29.643255 C1457.5955,31.7871892 1451.26626,30.9783997 1449.66576,33.481796 C1435.60422,34.0723407 1425.42962,37.8210162 1411.30573,40.1061676 C1407.47077,42.3528053 1402.05609,43.4953811 1397.56638,45.2798533 C1393.04549,47.0129738 1389.59506,49.6704252 1384.84553,51.1853009 C1374.13049,54.6130281 1361.09785,54.279242 1350.24771,57.3218313 C1346.47511,58.3873794 1343.39882,59.8894172 1340.27057,62.0205135 C1336.43561,63.2272789 1331.10408,63.394172 1329.25415,65.9874338 C1318.93404,66.5523027 1312.08515,69.5435403 1305.17391,72.4962641 C1296.37116,69.6205679 1284.90784,69.7617851 1273.44452,69.8901644 C1264.40274,70.0057057 1255.35056,70.1212471 1247.61828,68.7475886 C1239.31439,70.4293574 1231.99782,74.7557397 1223.63157,76.0780465 C1219.59914,76.7199429 1215.94086,76.1807499 1212.26179,76.6814292 C1208.39565,77.2077843 1205.32976,78.8253634 1201.15183,79.8010461 C1192.27633,81.8936286 1179.5243,82.5868768 1173.22623,85.9375764 C1170.51369,87.4011004 1169.13145,87.4267763 1165.88887,88.5821899 C1164.63134,89.0571933 1163.3738,90.3281483 1162.30334,90.7518 C1157.46027,92.754517 1151.80656,95.7072409 1146.77642,97.0295476 C1138.62842,99.147806 1127.59121,99.2633474 1120.54485,101.227551 L1120.83585,104.039057 C1113.6336,104.796495 1106.38978,105.412716 1100.17486,106.735022 C1096.56854,107.49246 1093.78325,108.853281 1090.26008,109.315446 C1089.18961,109.456663 1088.036,109.35396 1086.80965,109.264095 C1085.75997,109.187067 1084.65833,109.110039 1083.52551,109.174229 C1081.56126,109.28977 1079.22286,110.03437 1077.36254,110.16275 L1076.71819,110.201263 C1073.25737,109.79045 1069.80694,109.456663 1066.28376,109.405312 C1057.60573,109.28977 1048.88612,109.854639 1040.07298,110.804646 L1038.34777,110.483698 L1037.11102,111.138432 C1032.64209,111.677625 1028.14199,112.293846 1023.6107,112.987094 L1021.06445,113.38507 C1015.04699,114.322239 1008.97756,115.374949 1002.8146,116.427659 C1001.46353,116.556039 1000.12285,116.697256 998.771781,116.915501 C989.220748,118.327673 980.542714,119.5216 970.201825,119.662818 C970.035539,119.662818 968.383075,118.969569 966.948861,119.033759 C965.753683,119.097949 965.223647,119.470249 963.446469,119.5216 C960.349399,119.598628 957.065257,119.534438 953.708365,119.470249 C949.073152,119.393221 944.302832,119.303356 939.729976,119.598628 C934.814156,119.8939 930.334836,121.434452 925.730802,121.524317 C922.581767,121.588507 919.578232,121.164855 916.605876,120.754042 C913.280163,120.279038 910.006414,119.804035 906.618343,120.02228 C902.087059,120.304714 896.693167,121.742562 891.517526,123.052031 C886.695242,124.29731 881.280565,126.633813 877.144209,126.646651 C873.860067,126.672327 872.145246,125.170289 870.783782,124.862179 C870.284925,124.746638 869.671747,124.785151 869.068961,124.810827 C868.486961,124.849341 867.904961,124.887855 867.416497,124.785151 C865.608141,124.425689 864.672784,123.835145 862.614999,123.578386 C858.218821,123.039193 854.165608,123.103383 849.862967,123.167572 C847.233575,123.206086 844.500254,123.2446 841.559076,123.141896 C831.051901,122.795272 821.033189,122.204728 811.471764,121.408776 C806.036301,120.959448 800.56966,121.126342 795.601875,120.535797 C794.261197,120.368904 793.086805,119.637142 791.642198,119.329031 C785.791021,118.083752 780.282808,117.852669 775.315024,116.787121 C773.205275,116.119549 773.163703,116.119549 771.22024,116.145225 C769.380704,116.145225 767.769812,116.389145 765.192384,116.568877 C756.410422,113.949939 746.78664,115.914142 737.391499,115.99117 C736.362607,116.004008 735.791,115.451977 734.148929,115.374949 C731.800144,115.272246 729.742359,115.529004 727.694967,115.798601 C725.876217,116.042521 724.078253,116.273604 722.103611,116.247928 C715.576899,116.145225 709.24765,113.924263 703.947295,114.206697 C701.733617,114.309401 700.164296,115.11819 697.784332,115.18238 C695.633012,115.24657 693.367369,115.131028 691.070549,115.028325 C688.555478,114.899946 685.998836,114.771566 683.462979,114.887108 C678.806981,115.11819 674.286089,116.479011 670.440733,116.29928 C664.631128,116.016846 658.894272,112.653308 653.521167,112.614794 C651.255525,111.857356 648.636525,112.345198 646.329312,110.791808 C633.889065,110.53505 622.934997,108.083005 612.67725,106.221505 C602.201253,104.295816 592.161756,102.40864 583.889044,98.9423991 C579.79426,98.9552371 579.097938,97.0937373 576.946618,96.0153512 C565.847049,95.5403478 559.788015,92.3051895 552.118089,89.9430105 C547.763483,89.4166553 542.629413,87.105828 540.259843,86.3612281 C533.088773,84.0760766 520.139277,84.6281076 510.307637,84.0760766 C502.554568,83.639587 495.383498,83.9476973 489.241322,83.639587 C486.871751,84.8078386 481.592181,83.6524249 479.596753,85.1287868 C467.270828,84.0760766 457.574295,85.4497351 444.791085,85.5139247 C440.91455,86.5794729 435.957159,86.7720418 431.633731,87.478128 C430.033232,87.7092107 428.526268,88.0686727 427.04009,88.4152968 C418.964842,89.1598968 410.816844,89.8017932 402.637668,90.3024725 C397.597134,90.1869311 392.5566,90.0585518 387.765494,90.4693656 C385.905173,90.6362587 384.179959,90.8930173 382.485924,91.2653172 C354.622682,92.2024861 326.645119,91.4450482 299.997841,88.3511072 C298.688341,88.0815107 297.399627,87.7990762 296.183664,87.4909659 L294.042736,87.6065073 C277.881847,85.5010868 262.250995,82.4970113 247.493142,78.4530634 C236.788502,80.725377 226.530755,83.2416112 218.715329,86.9774487 C210.130831,86.2328488 201.619084,85.4368972 189.573766,87.5551555 C187.723838,86.3483902 184.138303,86.566635 180.563161,86.7977177 C179.014626,86.9004211 177.455698,86.9902866 176.04227,86.9774487 C171.99945,85.9632523 168.154094,85.4754109 163.560452,85.5267627 C150.423885,85.6808178 135.40621,89.2112485 122.332,89.0315175 C116.54318,88.9416519 112.022289,87.5679935 106.462112,87.2598832 C100.912327,86.8875832 94.4167937,87.285559 89.5321522,86.3612281 C72.7373,87.9659693 60.2450893,87.3754245 43.8555584,90.392338 C42.6084159,89.4936829 40.0102024,89.6990898 37.4119888,89.9044967 C35.1047752,90.0842277 32.7975616,90.2639587 31.4360977,89.6862519 C23.3088858,90.8930173 13.9345314,91.4322103 3.6663915,93.0241136 C2.15942765,93.2680342 0.59010668,93.486279 -1,93.7045238 L-4,410 C150,406 1361,410 1472,410 L1472,28 C1467.635,28.6418965 1463.54022,29.2966309 1459.73643,29.643255 Z" id="Fill-1027"></path>
                </g>
            </g>
        </g>
    </g>
</svg>