<?xml version="1.0" encoding="UTF-8"?>
<svg width="112px" height="130px" viewBox="0 0 112 130" version="1.1" xmlns="http://www.w3.org/2000/svg" xmlns:xlink="http://www.w3.org/1999/xlink">
    <title>Group</title>
    <g id="Page-1" stroke="none" stroke-width="1" fill="none" fill-rule="evenodd">
        <g id="Desktop-HD" transform="translate(-628.000000, -747.000000)">
            <g id="Group-5" transform="translate(424.000000, 747.000000)">
                <g id="08" transform="translate(204.000000, 0.000000)">
                    <path d="M56.0002614,130 C55.8831645,130 55.7658063,129.969736 55.6607328,129.908682 L0.339528588,97.7503182 C0.129381564,97.627947 0,97.4021524 0,97.1579363 L0,32.8414716 C0,32.5972555 0.129381564,32.3714609 0.339528588,32.2493528 L55.6607328,0.0917784059 C55.8708798,-0.030592802 56.1299043,-0.030592802 56.33979,0.0917784059 L111.660471,32.2493528 C111.870618,32.3714609 112,32.5972555 112,32.8414716 L112,97.1579363 C112,97.4021524 111.870618,97.627947 111.660471,97.7497919 L56.33979,129.908419 C56.2349778,129.969736 56.1176196,130 56.0002614,130" id="Fill-1704" fill="#131917"></path>
                    <path d="M6.06566902,94.708466 L56.3013368,123.813166 L106.536482,94.708466 L106.536482,36.5001147 L56.3013368,7.39672631 L6.06566902,36.5001147 L6.06566902,94.708466 Z M56.3013368,125.162791 C56.1935933,125.162791 56.0858498,125.134974 55.9890898,125.079079 L5.12918972,95.6130265 C4.93619287,95.5009733 4.8172043,95.2939242 4.8172043,95.0703427 L4.8172043,36.1385004 C4.8172043,35.9149189 4.93619287,35.7078698 5.12918972,35.596079 L55.9890898,6.13055152 C56.1823482,6.01849833 56.4205869,6.01849833 56.6135837,6.13055152 L107.472961,35.596079 C107.665958,35.7078698 107.784946,35.9149189 107.784946,36.1385004 L107.784946,95.0703427 C107.784946,95.2939242 107.665958,95.5009733 107.472961,95.6127641 L56.6135837,125.078816 C56.5170853,125.134974 56.4090803,125.162791 56.3013368,125.162791 L56.3013368,125.162791 Z" id="Fill-1705" fill="#131917"></path>
                    <path d="M6.06566902,94.708466 L56.3013368,123.813166 L106.536482,94.708466 L106.536482,36.5001147 L56.3013368,7.39672631 L6.06566902,36.5001147 L6.06566902,94.708466 Z M56.3013368,125.162791 C56.1935933,125.162791 56.0858498,125.134974 55.9890898,125.079079 L5.12918972,95.6130265 C4.93619287,95.5009733 4.8172043,95.2939242 4.8172043,95.0703427 L4.8172043,36.1385004 C4.8172043,35.9149189 4.93619287,35.7078698 5.12918972,35.596079 L55.9890898,6.13055152 C56.1823482,6.01849833 56.4205869,6.01849833 56.6135837,6.13055152 L107.472961,35.596079 C107.665958,35.7078698 107.784946,35.9149189 107.784946,36.1385004 L107.784946,95.0703427 C107.784946,95.2939242 107.665958,95.5009733 107.472961,95.6127641 L56.6135837,125.078816 C56.5170853,125.134974 56.4090803,125.162791 56.3013368,125.162791 L56.3013368,125.162791 Z" id="Fill-1706" fill="#C7C8B8"></path>
                    <path d="M56.3010753,15.7657457 C28.9335926,15.7657457 6.66853973,38.1234494 6.66853973,65.6047825 C6.66853973,93.0861156 28.9335926,115.444082 56.3010753,115.444082 C83.6685579,115.444082 105.933611,93.0861156 105.933611,65.6047825 C105.933611,38.1234494 83.6685579,15.7657457 56.3010753,15.7657457 Z M56.3010753,116.697674 C28.2447751,116.697674 5.41935484,93.7773906 5.41935484,65.6047825 C5.41935484,37.4319117 28.2447751,14.5116279 56.3010753,14.5116279 C84.3573755,14.5116279 107.182796,37.4319117 107.182796,65.6047825 C107.182796,93.7773906 84.3573755,116.697674 56.3010753,116.697674 L56.3010753,116.697674 Z" id="Fill-1707" fill="#C6C7B7"></path>
                    <path d="M21.0287005,83.5791171 C20.9024062,83.3915898 20.7781936,83.2032588 20.6557159,83.0141241 C20.553362,82.8560654 20.30459,82.7920382 20.0998822,82.8710675 C19.8955214,82.9500969 19.8125974,83.1421785 19.9146043,83.2999693 C20.0391638,83.4923187 20.1654581,83.6835966 20.2934872,83.8740708 C20.3989638,84.03079 20.6487767,84.0918703 20.8517497,84.0104299 C21.0550696,83.9289895 21.1338301,83.7358363 21.0287005,83.5791171" id="Fill-1709" fill="#C5C7B8"></path>
                    <path d="M19.842656,81.7896075 C19.6730973,81.4162189 19.5091991,81.039954 19.3509615,80.66029 C19.2848362,80.5015737 19.1044711,80.4275758 18.9482919,80.4947753 C18.7921126,80.5622362 18.7192976,80.7452699 18.7854229,80.9039862 C18.9462335,81.2894027 19.1127046,81.671943 19.2848362,82.0510841 C19.3558502,82.2077086 19.5382737,82.275954 19.6923946,82.2037864 C19.8465154,82.1316189 19.9136699,81.946232 19.842656,81.7896075 Z M18.8942595,79.5160683 C18.7483721,79.133005 18.607888,78.7468041 18.4733217,78.3579884 C18.4169737,78.1953499 18.2414972,78.109847 18.0817158,78.1671104 C17.9216771,78.2241123 17.837541,78.4024394 17.8938891,78.5650778 C18.0305137,78.960169 18.1733135,79.3523839 18.3215166,79.7417226 C18.3827532,79.9022693 18.5608027,79.9822811 18.7190403,79.9197882 C18.8770206,79.8575568 18.9557535,79.6768764 18.8942595,79.5160683 Z M18.0881482,77.1868346 C17.9659322,76.7951426 17.849634,76.4008359 17.7392536,76.0041758 C17.6931975,75.8381382 17.5233815,75.7416533 17.3602553,75.7887191 C17.1968717,75.8355234 17.1019291,76.008098 17.1482426,76.1738742 C17.260424,76.5770711 17.3785233,76.9776533 17.5025404,77.3753592 C17.5537425,77.539828 17.7263888,77.6308219 17.8879712,77.5785266 C18.049811,77.5264927 18.1393503,77.3510419 18.0881482,77.1868346 Z M17.4271525,74.8107966 C17.3293796,74.4123062 17.2375246,74.0114625 17.1518447,73.6082656 C17.1158232,73.4396132 16.9524396,73.3326692 16.7867404,73.3690145 C16.6207839,73.4056212 16.5155495,73.5716589 16.5513137,73.7400498 C16.6385374,74.1497837 16.7316789,74.5569028 16.8309955,74.9616686 C16.8719057,75.1290136 17.0386341,75.230728 17.2033041,75.1891532 C17.3679742,75.1475784 17.4680627,74.9781416 17.4271525,74.8107966 Z M16.9135878,72.3973674 C16.8407728,71.9936475 16.7736183,71.5878358 16.7128962,71.1796708 C16.6874238,71.009188 16.5309873,70.8920465 16.3632297,70.9179327 C16.1954721,70.9438189 16.0802031,71.1027966 16.1056755,71.2732794 C16.1674267,71.6877198 16.2353531,72.1000685 16.3094546,72.5103253 C16.340073,72.6797621 16.5001116,72.7919356 16.6670973,72.7608199 C16.8338257,72.7297042 16.9442061,72.5670657 16.9135878,72.3973674 Z M16.5495126,69.9562217 C16.5013981,69.5488411 16.4594587,69.1393687 16.4236945,68.728066 C16.4087712,68.5565373 16.259539,68.4294597 16.0904949,68.4448868 C15.9217082,68.4600525 15.7969191,68.6114474 15.8118424,68.7832376 C15.8481212,69.2008157 15.8908325,69.6165635 15.9397189,70.030481 C15.9597881,70.2017482 16.1126225,70.3238578 16.281152,70.3032011 C16.4494241,70.282806 16.5698391,70.1274889 16.5495126,69.9562217 Z M16.3351843,67.4967726 C16.3120276,67.0870387 16.2947887,66.675736 16.2839822,66.2628644 C16.2796082,66.0905514 16.1383522,65.9545835 15.9687935,65.9592901 C15.7992348,65.9639967 15.6654404,66.1072859 15.6700718,66.279599 C15.6811355,66.6990074 15.6983744,67.1165856 15.7217884,67.5325949 C15.7315657,67.7046465 15.8769385,67.8361693 16.0462399,67.8262331 C16.2155412,67.816297 16.3449616,67.6688242 16.3351843,67.4967726 Z M16.2700882,65.0273874 C16.271632,64.6139929 16.2793509,64.2021672 16.2932449,63.7919104 C16.2991627,63.6198588 16.1663975,63.4752622 15.9968389,63.4695097 C15.8272802,63.4634958 15.6852523,63.5984177 15.6793345,63.7704693 C15.6651831,64.1872631 15.6574642,64.6053642 15.6559172,65.0250341 C15.6551485,65.1973472 15.7922878,65.3377602 15.9618465,65.3382864 C16.1314051,65.3390676 16.2693163,65.1997005 16.2700882,65.0273874 Z M16.3537097,62.5580023 C16.3802113,62.1459151 16.4126307,61.7353968 16.4514825,61.3267089 C16.4676922,61.1549187 16.3439324,61.0024779 16.1751456,60.9860048 C16.0063588,60.9695318 15.8563547,61.0950406 15.840145,61.2668307 C15.8007786,61.6817941 15.7675873,62.0988493 15.7408284,62.5174734 C15.7297647,62.689525 15.8578985,62.8380437 16.0271999,62.8492872 C16.1965013,62.8602692 16.3426459,62.7300539 16.3537097,62.5580023 Z M16.5868207,60.0988147 C16.6382801,59.6893423 16.6959146,59.2817002 16.7594669,58.87615 C16.7862258,58.7059287 16.6722433,58.545905 16.504743,58.5187115 C16.3372427,58.4915179 16.179777,58.607352 16.1530181,58.7775733 C16.0884366,59.1896605 16.0297729,59.6038394 15.9775416,60.0198487 C15.9559286,60.1908544 16.0750571,60.346956 16.2433293,60.36892 C16.4113442,60.3906226 16.5652078,60.2698204 16.5868207,60.0988147 Z M16.9699358,57.6592378 C17.046353,57.2539491 17.1289453,56.8507521 17.2174555,56.4499085 C17.2545062,56.281779 17.1505583,56.1146954 16.984859,56.0770428 C16.8194171,56.0393902 16.6552617,56.1450267 16.6179536,56.3131562 C16.528157,56.7205368 16.4442782,57.1300091 16.3665745,57.5418348 C16.3346697,57.7110102 16.4437636,57.8746946 16.6102347,57.9071177 C16.7769631,57.9395408 16.9377737,57.8286747 16.9699358,57.6592378 Z M17.5020259,55.2489464 C17.6034008,54.8494101 17.7104364,54.4524886 17.823647,54.0579204 C17.8709896,53.8924057 17.7775909,53.7190467 17.6147219,53.670935 C17.451853,53.6228233 17.2812651,53.7177393 17.2339225,53.883254 C17.1189107,54.2840976 17.0100741,54.6875561 16.9071554,55.0933678 C16.8649587,55.2601899 16.9637607,55.4304111 17.1279161,55.4735548 C17.2923289,55.5164369 17.4598292,55.4160299 17.5020259,55.2489464 Z M18.1818043,52.8776149 C18.3073652,52.4854 18.438844,52.0957998 18.5762405,51.7090759 C18.6336177,51.5469604 18.5510254,51.3681104 18.3915013,51.3095396 C18.2319772,51.2512304 18.0559861,51.3351643 17.9983516,51.4972798 C17.8588967,51.8902792 17.7253596,52.2858933 17.5977403,52.6841222 C17.5452517,52.8480681 17.6332473,53.0243033 17.7945725,53.0776445 C17.9558976,53.1309858 18.1293158,53.0412993 18.1818043,52.8776149 Z M19.006441,50.5538722 C19.1559305,50.170809 19.3113378,49.7903605 19.4721484,49.4130497 C19.5395602,49.2548564 19.4680316,49.0710383 19.312367,49.0025314 C19.1567024,48.9340246 18.9758226,49.0067151 18.9084108,49.1649084 C18.7450273,49.5482331 18.5873043,49.9344341 18.4354991,50.3237728 C18.3729759,50.484058 18.450165,50.6655227 18.6076307,50.7290615 C18.7653537,50.7926004 18.9439178,50.7141574 19.006441,50.5538722 L19.006441,50.5538722 Z" id="Fill-1710" fill="#BEC1B4"></path>
                    <path d="M20.2712176,48.1892702 C20.3303551,47.9990104 20.3905486,47.80955 20.4516221,47.620889 C20.5026634,47.4631385 20.4597183,47.2726122 20.3555237,47.1953358 C20.2513292,47.1180594 20.125486,47.1830782 20.0742687,47.3408286 C20.0123152,47.5324208 19.9512417,47.7250789 19.8910482,47.9182699 C19.841591,48.0770862 19.8866481,48.2668131 19.9915467,48.3416913 C20.0964453,48.4165694 20.2217604,48.348353 20.2712176,48.1895367" id="Fill-1711" fill="#FFFFFE"></path>
                    <path d="M91.5483779,47.620889 C91.6094514,47.80955 91.6696449,47.9990104 91.7289584,48.1895367 C91.7782396,48.348353 91.9035547,48.4165694 92.0084533,48.3416913 C92.1133519,48.2668131 92.158409,48.0773527 92.1089518,47.9182699 C92.0487583,47.7250789 91.9876848,47.5324208 91.9255553,47.3408286 C91.874514,47.1830782 91.7486708,47.1180594 91.6444763,47.1953358 C91.5402817,47.2726122 91.4973366,47.4631385 91.5483779,47.620889" id="Fill-1712" fill="#FFFFFE"></path>
                    <path d="M92.5200296,49.4132391 C92.6812863,49.7903193 92.8366182,50.1705374 92.9862829,50.553632 C93.049137,50.7139303 93.2276527,50.7923797 93.3855606,50.7285742 C93.5434685,50.6650302 93.6207481,50.4835506 93.557894,50.3235138 C93.4059109,49.9341432 93.248003,49.5479106 93.084428,49.164816 C93.0169372,49.0066097 92.8358454,48.9339133 92.6799983,49.0026872 C92.5241512,49.0711997 92.4525388,49.2550328 92.5200296,49.4132391 Z M93.4172452,51.7084073 C93.5548029,52.0949014 93.6864357,52.484272 93.8121438,52.8762575 C93.8649515,53.0402168 94.0383153,53.1296491 94.1998295,53.0763035 C94.3613438,53.0229579 94.4494425,52.8467082 94.3968924,52.682749 C94.2691235,52.2844875 94.1354299,51.8891025 93.9958115,51.4963324 C93.9381094,51.3342036 93.7619121,51.2502628 93.602201,51.3088383 C93.4422323,51.3674139 93.3595432,51.5462785 93.4172452,51.7084073 Z M94.1709785,54.0561366 C94.2843218,54.4504756 94.3917404,54.8474296 94.4932342,55.2467371 C94.5354804,55.4135728 94.703177,55.5139881 94.8675249,55.4711024 C95.0321303,55.4279552 95.1310482,55.25772 95.0885444,55.0908843 C94.985505,54.6853008 94.8765408,54.2820709 94.7613943,53.8814559 C94.7137386,53.7159277 94.5432083,53.6207424 94.3801485,53.6691195 C94.2170886,53.7172352 94.1235804,53.8906083 94.1709785,54.0561366 Z M94.7783958,56.447013 C94.8670097,56.847628 94.9496988,57.2505965 95.0264632,57.6556569 C95.0584054,57.8251076 95.219662,57.9359828 95.3863283,57.9032956 C95.5532521,57.8708698 95.6624739,57.707172 95.6302741,57.5379828 C95.5524793,57.1263849 95.4685022,56.7171405 95.3783427,56.3102496 C95.3409909,56.1418448 95.1766431,56.0361996 95.0110072,56.0741169 C94.8451138,56.1117726 94.741044,56.2788698 94.7783958,56.447013 Z M95.2371787,58.8718842 C95.3010632,59.2772062 95.3587652,59.6846201 95.4105425,60.0938645 C95.4319232,60.2648842 95.5859671,60.3856963 95.7544365,60.3637305 C95.922906,60.3420261 96.0419165,60.1856503 96.0205358,60.0146306 C95.9679857,59.5988487 95.9092533,59.1848974 95.8443384,58.7732995 C95.8175482,58.6030643 95.6598979,58.4869591 95.4922013,58.5141549 C95.3245046,58.5416122 95.2103885,58.701649 95.2371787,58.8718842 Z M95.546297,61.3208132 C95.5851943,61.7292732 95.6179093,62.1395636 95.644442,62.551423 C95.6557763,62.7234887 95.8020923,62.8539762 95.9715921,62.8424703 C96.1410919,62.8312258 96.269376,62.682695 96.2582992,62.5106293 C96.2312514,62.0922324 96.1977636,61.6756661 96.158351,61.2606687 C96.1421223,61.089126 95.9916848,60.9636069 95.8227002,60.9800813 C95.6537155,60.9968172 95.5298106,61.1492705 95.546297,61.3208132 Z M95.7054928,63.7846476 C95.7194032,64.194938 95.7273887,64.6065359 95.7291919,65.0197028 C95.7299647,65.19203 95.8680375,65.331147 96.0380525,65.3306254 C96.2078099,65.3298395 96.3448523,65.189415 96.3440828,65.0170878 C96.3422764,64.597645 96.3342908,64.1795097 96.3201229,63.7629433 C96.3141981,63.5908776 96.1717461,63.4559446 96.0019887,63.4619591 C95.8324889,63.4679735 95.6995681,63.6125819 95.7054928,63.7846476 Z M95.7157968,66.255281 C95.7049776,66.6681864 95.6879761,67.0797843 95.6650499,67.4895517 C95.6552611,67.6616174 95.7848332,67.8091023 95.954333,67.8190392 C96.1240904,67.8287146 96.269376,67.6971811 96.2789071,67.5251154 C96.3023486,67.1088106 96.3196077,66.6909367 96.3304268,66.2714939 C96.334806,66.0991667 96.2008548,65.9558658 96.0310974,65.9514203 C95.8613399,65.9467133 95.7201759,66.0826923 95.7157968,66.255281 Z M95.5769512,68.7217304 C95.541145,69.1330668 95.4991564,69.5428342 95.4512431,69.9505096 C95.4311504,70.1215293 95.5514489,70.2768591 95.7201759,70.2975175 C95.8886454,70.3179143 96.0416589,70.1957947 96.0617516,70.0245135 C96.1106953,69.6103007 96.153199,69.1945188 96.1895204,68.776645 C96.2044612,68.6048408 96.0792683,68.4534334 95.9100261,68.4382665 C95.7410414,68.4230996 95.5918919,68.5499262 95.5769512,68.7217304 Z M95.2881832,71.1745819 C95.22739,71.5827803 95.1604144,71.9891482 95.087514,72.3931627 C95.0568598,72.5626134 95.1673695,72.7252651 95.334551,72.7563834 C95.5014748,72.7875017 95.6617011,72.6750575 95.6923553,72.5056068 C95.7662861,72.0950549 95.8342921,71.6826725 95.8961157,71.2679367 C95.921618,71.0974399 95.8059563,70.9384491 95.638002,70.9125608 C95.4700478,70.886934 95.3134279,71.0040851 95.2881832,71.1745819 Z M94.849493,73.6044215 C94.7637127,74.007913 94.67175,74.4090509 94.5741202,74.8075739 C94.533162,74.9749327 94.6333678,75.1443834 94.7982309,75.1859616 C94.9630939,75.2275398 95.1297602,75.125817 95.1709759,74.9584583 C95.2701513,74.5533978 95.363402,74.1459839 95.4504703,73.7362165 C95.4862765,73.5675503 95.3809187,73.401499 95.2147677,73.3651508 C95.0488742,73.3288026 94.8852992,73.4360168 94.849493,73.6044215 Z M94.2619108,76.0015739 C94.151401,76.3985279 94.0349665,76.7928669 93.9128648,77.1848525 C93.8616027,77.3490732 93.951247,77.5245384 94.1132764,77.5765765 C94.2750483,77.6286146 94.4478969,77.5376133 94.499159,77.3731311 C94.6233215,76.9751311 94.7415592,76.5745161 94.8536146,76.1712861 C94.8997247,76.0052349 94.8046708,75.8329077 94.6413534,75.785838 C94.4777783,75.7390299 94.3080209,75.8355227 94.2619108,76.0015739 Z M93.5274974,78.3563636 C93.3927734,78.7454727 93.2523822,79.1317053 93.1060662,79.5153229 C93.0450154,79.6761442 93.1235829,79.8568393 93.282006,79.9190758 C93.4404291,79.9813124 93.6184297,79.901294 93.6797381,79.7404727 C93.8281149,79.3511021 93.9708245,78.9585936 94.1076093,78.5634701 C94.1640233,78.4008183 94.0797886,78.2224766 93.9195623,78.1654701 C93.7593361,78.108202 93.5839115,78.1937119 93.5274974,78.3563636 Z M92.6493441,80.6601612 C92.490921,81.0395949 92.3270883,81.416152 92.1573309,81.7898327 C92.0862337,81.9462085 92.1537245,82.1316106 92.3080261,82.2037841 C92.4623276,82.2759575 92.6449649,82.2077066 92.7158045,82.0510692 C92.8881379,81.6716356 93.0548041,81.289064 93.2155456,80.9036159 C93.2817484,80.7446251 93.2088481,80.5615765 93.0524858,80.4943715 C92.8958659,80.4271665 92.7155469,80.5014319 92.6493441,80.6601612 L92.6493441,80.6601612 Z" id="Fill-1713" fill="#FFFFFE"></path>
                    <path d="M91.3444361,83.014083 C91.2219614,83.2034931 91.097752,83.3918316 90.9714608,83.5793664 C90.8659869,83.7360919 90.9450923,83.9289848 91.1480603,84.0104285 C91.3510282,84.0918721 91.6011818,84.0307894 91.7066558,83.8740639 C91.8346817,83.6835821 91.9609728,83.4922967 92.0851823,83.2999396 C92.1875336,83.1421425 92.1046117,82.9500533 91.899909,82.8710208 C91.6952063,82.7919882 91.4464405,82.8562859 91.3444361,83.014083" id="Fill-1714" fill="#FFFFFE"></path>
                    <path d="M40.3145573,50.2721657 C40.3101001,50.3381083 40.3333764,50.4035589 40.3789386,50.4512935 L52.2993773,63.1044131 L52.9892473,64.3991532 L51.207372,65.9069767 L30.2646419,44.9559067 L28.9032258,26.6046512 L32.8666355,42.211412 C32.8750546,42.2458597 32.8913975,42.2778468 32.9141786,42.3049128 L37.4585054,47.7815995 C37.515458,47.8504948 37.6065823,47.8814977 37.6942398,47.8627975 C37.7818974,47.8440974 37.8517263,47.7786468 37.8750026,47.6925277 L41.4209246,34.6688496 L40.3145573,50.2721657 Z M46.9677419,52.1448729 L47.8593035,47.1627907 L48.7597572,52.0605615 C48.7649053,52.08995 48.7756696,52.118375 48.791582,52.1434276 L54.7956989,61.7395124 L52.8015028,63.4883721 L46.9677419,52.1448729 Z M56.632968,64.3554212 L59.6643691,76.4975689 L58.6925945,78.1187736 C58.6454691,78.1977478 58.6474533,78.2970863 58.697555,78.3740736 L60.8172043,81.627907 L57.713379,80.2769031 L51.1827957,66.5284514 L55.4568182,62.8837209 L56.632968,64.3554212 Z M60.8900032,64.0930233 L62.0215054,76.1860465 L60.1128295,76.1860465 L57.2043011,64.0930233 L60.8900032,64.0930233 Z M61.5454336,62.2790698 L66.2365591,63.8664683 L64.5627388,77.4612802 L63.7023301,78.6046512 L62.4998366,76.1044733 L61.4193548,63.6928939 L61.5454336,62.2790698 Z M69.1376931,52.795526 C69.1716015,52.7532773 69.1897843,52.7007121 69.1897843,52.6471644 L69.1897843,47.7674419 L71.0537634,52.9591168 L64.7443438,63.4883721 L61.4193548,62.4807902 L69.1376931,52.795526 Z M71.9185873,53.0821045 L75.9583116,46.4366784 C75.9965192,46.373705 76.0038669,46.2968477 75.9788849,46.2274283 L72.581833,36.9148071 L77.6125069,44.2331062 C77.6580622,44.2990547 77.7334978,44.3377313 77.813342,44.3357479 C77.8926963,44.3337644 77.9661726,44.2916169 78.008299,44.2226933 L80.7768841,39.7372042 C80.7999066,39.6990235 80.8126425,39.6548925 80.8126425,39.6097699 L80.8126425,24.7906977 L83.0967742,40.1542168 L79.7629118,46.180818 L66.9104461,64.0930233 L65.6344086,63.701795 L71.9185873,53.0821045 Z M59.6129032,78.2074294 L60.4613006,76.7906977 L62.5043801,76.7906977 L63.827957,79.2586616 L61.8406678,81.627907 L59.6129032,78.2074294 Z M66.2365591,88.0270837 L61.8390326,106.418605 L51.1827957,95.2361638 L52.3372254,70.1395349 L57.0774353,80.2902683 C57.1017391,80.3427448 57.1440277,80.3843299 57.1960378,80.4075978 L61.0379799,82.1086278 C61.0428406,82.1106081 61.0477014,82.1115982 61.0525621,82.1130834 C61.0588811,82.1160538 61.0661723,82.118034 61.0729773,82.1200142 C61.083671,82.1224895 61.0938786,82.1244698 61.1045722,82.1254599 C61.1089469,82.125955 61.1133216,82.1274402 61.1176963,82.1279352 C61.122557,82.1284303 61.1269317,82.1284303 61.1317925,82.1284303 C61.1342229,82.1284303 61.1366532,82.1274402 61.1385975,82.1274402 C61.1536659,82.1274402 61.1682481,82.125955 61.1823443,82.1224895 C61.1901216,82.1214994 61.1974127,82.118034 61.2047038,82.1155587 C61.2134532,82.1125883 61.2222025,82.110113 61.2304658,82.1061525 C61.2387291,82.102192 61.2455342,82.0977365 61.2528253,82.0927859 C61.2601164,82.0883303 61.2678937,82.0848649 61.2746987,82.0794192 C61.2883088,82.0690229 61.3009468,82.0571415 61.3121265,82.0427847 L64.4968943,78.1818029 L66.2365591,88.0270837 Z M49.2107736,69.3903691 L48.172043,64.0930233 L50.9332997,66.6990441 L52.3870968,69.5644697 L52.267366,71.9534884 L49.2107736,69.3903691 Z" id="Fill-11" fill="#6E9894"></path>
                </g>
            </g>
        </g>
    </g>
</svg>