<?xml version="1.0" encoding="UTF-8"?>
<svg width="58px" height="38px" viewBox="0 0 58 38" version="1.1" xmlns="http://www.w3.org/2000/svg" xmlns:xlink="http://www.w3.org/1999/xlink">
    <title>001-road</title>
    <g id="Page-1" stroke="none" stroke-width="1" fill="none" fill-rule="evenodd">
        <g id="Desktop-HD" transform="translate(-1182.000000, -2242.000000)" fill="#FFFFFF" fill-rule="nonzero">
            <g id="Group-7" transform="translate(1117.000000, 2242.000000)">
                <g id="001-road" transform="translate(65.000000, 0.000000)">
                    <path d="M45.7710843,13.0441767 C44.4238383,13.0469133 43.0865895,13.2755621 41.8149719,13.7206104 L37.8746988,4.65863454 L43.4417671,4.65863454 C44.2136349,4.65863454 44.8393574,5.28435706 44.8393574,6.0562249 C44.8393574,6.82809274 44.2136349,7.45381526 43.4417671,7.45381526 L41.1124498,7.45381526 L41.1124498,9.31726908 L43.4417671,9.31726908 C45.242792,9.31726908 46.7028112,7.85724987 46.7028112,6.0562249 C46.7028112,4.25519993 45.242792,2.79518072 43.4417671,2.79518072 L36.4538153,2.79518072 C36.1394472,2.79502828 35.8461988,2.95341327 35.6739485,3.21639074 C35.5016983,3.4793682 35.4736744,3.8114753 35.5994217,4.09959839 L37.4628755,8.38554217 L21.8536546,8.38554217 L20.760739,4.97076305 L23.8950683,3.92536546 C24.8321462,3.61292524 25.4044201,2.66709641 25.2463457,1.69203411 C25.0882712,0.716971814 24.2464912,0.000385516256 23.2586988,-3.31015893e-15 L16.3415582,-3.31015893e-15 C15.4318207,-3.31015893e-15 14.611647,0.547964303 14.263501,1.38845033 C13.915355,2.22893636 14.1078021,3.19638167 14.7511004,3.83964659 L15.281253,4.3697992 C16.2445531,5.3464557 17.6324997,5.77658277 18.9792771,5.51582329 L19.9799518,8.6426988 C19.9049608,8.71124968 19.8419751,8.79187132 19.7936064,8.88122088 L17.0561928,14.0523052 C12.4925359,12.0638845 7.17698286,13.0701411 3.65588482,16.58904 C0.134786772,20.1079388 -0.874790561,25.4228622 1.1107786,29.9877604 C3.09634776,34.5526587 7.67270558,37.437898 12.6476034,37.2613394 C17.6225011,37.0847808 21.9828093,33.8823802 23.6397751,29.1882088 C24.1408261,30.6065491 25.4479578,31.5825751 26.9502008,31.6600803 L27.6499277,33.759261 C27.7740236,34.1322199 28.1188245,34.3871862 28.5117751,34.3965622 L31.7728193,34.4738956 L31.8156787,32.6104418 L29.2068434,32.5489478 L28.7819759,31.2762088 C29.8044729,30.7812242 30.5410792,29.8417828 30.7778615,28.7307273 C31.0146438,27.6196719 30.7250625,26.4615348 29.9932209,25.5926747 L39.3244659,12.6714859 L40.1043213,14.4641285 C34.7079799,17.3377947 32.3029848,23.7853373 34.4991274,29.4910727 C36.6952699,35.196808 42.8025172,38.367981 48.7329632,36.8819568 C54.6634092,35.3959325 58.5536943,29.719623 57.7998436,23.6524848 C57.0459928,17.5853465 51.8848678,13.033688 45.7710843,13.0441767 L45.7710843,13.0441767 Z M18.9559839,3.60857831 C18.1275729,3.87920259 17.21738,3.66334658 16.5987149,3.04954217 L16.0685622,2.51938956 C15.9600216,2.40881122 15.9281825,2.2440183 15.9877198,2.10096609 C16.0472572,1.95791387 16.1866138,1.86437146 16.3415582,1.86345228 L23.2586988,1.86345228 C23.3330326,1.8631208 23.3965428,1.91695773 23.4083865,1.99034273 C23.4202303,2.06372772 23.3768814,2.1348109 23.3062169,2.15787952 L18.9559839,3.60857831 Z M12.2289157,35.4056231 C8.07884024,35.4070453 4.33753054,32.9055969 2.75292636,29.0699538 C1.16832217,25.2343108 2.05323302,20.8216499 4.99422856,17.8935664 C7.9352241,14.9654829 12.3517358,14.0999962 16.1803695,15.7014618 L11.4052691,24.7205783 C11.2669803,24.9823465 11.2613246,25.2942561 11.3900326,25.5608656 C11.5187406,25.8274751 11.7664923,26.0170501 12.0574779,26.0715823 L22.080996,27.9518072 C20.8284236,32.3566572 16.8083899,35.3981051 12.2289157,35.4056231 L12.2289157,35.4056231 Z M22.4285301,26.123759 L13.6451406,24.4746024 L17.8239357,16.584739 C20.7225953,18.4733952 22.4727862,21.69697 22.4779116,25.1566265 C22.4779116,25.4827309 22.4592771,25.8088353 22.4285301,26.123759 Z M24.3217992,25.5358394 C24.3264578,25.4091245 24.3413655,25.2842731 24.3413655,25.1566265 C24.3369015,21.0061915 22.2062115,17.1474589 18.6960321,14.9327871 L20.75049,11.0512129 L25.1538313,24.8081606 C24.8417417,25.0078586 24.5612922,25.2531341 24.3217992,25.5358394 Z M28.1903293,29.4863614 L27.5539598,27.5791165 L25.7836787,28.1679679 L26.2551325,29.5841928 C25.5241076,29.1877261 25.1460372,28.3533889 25.3298961,27.542353 C25.5137549,26.7313172 26.2146579,26.1415793 27.0451877,26.0991113 C27.8757175,26.0566433 28.6331184,26.5718128 28.8987444,27.3598649 C29.1643704,28.147917 28.8733747,29.0164659 28.1866024,29.4854297 L28.1903293,29.4863614 Z M28.4931406,24.48951 C28.0616098,24.316769 27.6013622,24.2269954 27.1365462,24.2248996 C27.0657349,24.2248996 26.9995823,24.2416707 26.9297028,24.2453976 L22.4499598,10.248996 L38.2734779,10.248996 L38.4598233,10.6803855 L28.4931406,24.48951 Z M45.7710843,35.4056348 C41.0920934,35.4022787 37.0093991,32.2304795 35.8493819,27.6975634 C34.6893647,23.1646474 36.7465698,18.4215883 40.8487711,16.1710522 L44.9166908,25.5293173 L46.6254779,24.7839357 L42.55849,15.4293976 C46.4094957,14.1512689 50.651963,15.2653779 53.378092,18.2707197 C56.104221,21.2760615 56.8006833,25.606732 55.154286,29.3152674 C53.5078888,33.0238028 49.8286475,35.411888 45.7710843,35.4056348 L45.7710843,35.4056348 Z" id="Shape"></path>
                </g>
            </g>
        </g>
    </g>
</svg>