<?xml version="1.0" standalone="no"?>
<!DOCTYPE svg PUBLIC "-//W3C//DTD SVG 20010904//EN"
 "http://www.w3.org/TR/2001/REC-SVG-20010904/DTD/svg10.dtd">
<svg version="1.0" xmlns="http://www.w3.org/2000/svg"
 width="400.000000pt" height="400.000000pt" viewBox="0 0 400.000000 400.000000"
 preserveAspectRatio="xMidYMid meet">
<metadata>
Created by potrace 1.11, written by Peter Selinger 2001-2013
</metadata>
<g transform="translate(0.000000,400.000000) scale(0.100000,-0.100000)"
fill="#000000" stroke="none">
<path d="M1145 3476 l-850 -494 0 -997 0 -997 850 -494 c467 -272 852 -494
855 -494 3 0 388 222 855 494 l850 494 0 997 0 997 -850 494 c-467 272 -852
494 -855 494 -3 0 -388 -222 -855 -494z m1655 -148 l780 -451 0 -908 0 -908
-27 -19 c-67 -45 -1528 -886 -1542 -886 -9 -1 -366 202 -793 449 l-778 450 0
911 0 912 778 451 c427 247 783 451 790 451 7 0 364 -203 792 -452z"/>
<path d="M1733 3587 c-143 -84 -260 -153 -259 -154 1 -1 35 8 76 21 289 92
662 90 937 -5 32 -11 53 -15 48 -10 -20 18 -517 301 -528 300 -7 0 -130 -68
-274 -152z"/>
<path d="M1865 3484 c-296 -42 -485 -111 -702 -256 -127 -85 -298 -251 -386
-375 -209 -295 -311 -671 -278 -1020 46 -477 294 -889 691 -1146 508 -329
1155 -324 1656 12 287 192 493 463 603 796 54 164 73 287 74 470 0 420 -153
787 -453 1085 -209 208 -470 348 -765 410 -97 20 -365 35 -440 24z m930 -549
l27 -191 -53 -96 c-64 -114 -429 -627 -446 -628 -16 0 -18 -9 -44 -230 -23
-202 -35 -235 -62 -173 -16 38 -54 419 -43 430 3 3 32 -2 64 -11 69 -19 72
-19 72 -5 0 6 68 126 151 265 109 184 150 260 146 277 -2 12 -21 67 -41 122
-41 112 -41 112 38 -2 32 -46 60 -83 62 -83 2 0 24 32 49 70 l45 70 0 192 c0
105 2 189 4 187 2 -2 16 -90 31 -194z m-1448 -327 c32 -38 63 -76 69 -84 20
-25 33 -15 48 39 9 28 29 99 46 157 l30 105 -5 -95 c-2 -52 -7 -142 -10 -200
l-6 -105 176 -185 c97 -102 183 -195 192 -208 15 -22 15 -25 -8 -48 l-24 -24
-318 318 -317 317 -15 195 c-8 107 -16 220 -19 250 -3 36 14 -18 49 -154 l55
-209 57 -69z m-440 -110 c-3 -7 -5 -2 -5 12 0 14 2 19 5 13 2 -7 2 -19 0 -25z
m2190 0 c-3 -7 -5 -2 -5 12 0 14 2 19 5 13 2 -7 2 -19 0 -25z m-1281 -189 c23
-35 63 -100 91 -144 l50 -80 -28 -22 -27 -23 -86 170 c-77 151 -86 174 -81
207 13 77 18 80 30 17 7 -39 25 -83 51 -125z m-945 124 c-10 -17 -10 -16 -11
3 0 23 13 41 18 25 2 -6 -1 -18 -7 -28z m2272 -6 c-7 -11 -23 12 -23 33 1 12
4 11 15 -4 8 -10 12 -23 8 -29z m-707 -21 l17 -55 -93 -156 c-100 -167 -90
-159 -159 -133 -21 8 -22 10 -9 26 8 9 61 75 117 145 97 123 101 130 101 177
0 28 2 50 4 50 3 0 13 -24 22 -54z m-1583 -26 c-6 -22 -23 -38 -23 -21 0 17
12 41 20 41 5 0 6 -9 3 -20z m2311 4 c11 -28 6 -39 -9 -20 -8 11 -15 23 -15
28 0 14 18 9 24 -8z m-2343 -97 c-13 -13 -15 1 -4 30 7 17 8 17 11 -1 2 -10
-1 -23 -7 -29z m2369 12 c0 -10 -4 -19 -10 -19 -5 0 -10 12 -10 26 0 14 4 23
10 19 6 -3 10 -15 10 -26z m17 -87 c-3 -14 -6 -12 -14 8 -6 14 -8 29 -5 34 7
13 24 -22 19 -42z m-2401 1 c-11 -11 -17 4 -9 23 7 18 8 18 11 1 2 -10 1 -21
-2 -24z m-15 -76 c-8 -8 -11 -5 -11 9 0 27 14 41 18 19 2 -9 -1 -22 -7 -28z
m2429 18 c0 -14 -4 -25 -10 -25 -5 0 -10 11 -10 25 0 14 5 25 10 25 6 0 10
-11 10 -25z m10 -81 c0 -13 -4 -24 -10 -24 -5 0 -10 14 -10 31 0 17 4 28 10
24 6 -3 10 -17 10 -31z m-2444 -11 c-11 -11 -19 6 -11 24 8 17 8 17 12 0 3
-10 2 -21 -1 -24z m1216 -45 c8 -13 35 -104 59 -203 42 -169 44 -182 30 -207
-17 -29 -17 -28 26 -95 l15 -22 -39 15 c-37 15 -42 23 -136 222 l-98 207 58
52 c32 29 61 52 64 53 4 0 13 -10 21 -22z m-1212 -13 c0 -8 -4 -17 -10 -20 -6
-4 -10 5 -10 20 0 15 4 24 10 20 6 -3 10 -12 10 -20z m2440 0 c0 -14 -4 -25
-10 -25 -5 0 -10 11 -10 25 0 14 5 25 10 25 6 0 10 -11 10 -25z m-1071 -142
c7 -82 15 -163 18 -180 5 -30 3 -33 -21 -33 -29 0 -25 -8 -76 205 -17 72 -33
136 -35 143 -3 8 11 12 48 12 l53 0 13 -147z m-299 27 c12 -25 20 -59 18 -74
l-3 -27 -41 35 c-32 28 -43 45 -48 78 -4 24 -10 54 -13 67 l-6 24 36 -28 c19
-16 45 -49 57 -75z m-1070 35 c0 -14 -4 -25 -10 -25 -5 0 -10 11 -10 25 0 14
5 25 10 25 6 0 10 -11 10 -25z m2440 0 c0 -14 -4 -25 -10 -25 -5 0 -10 11 -10
25 0 14 5 25 10 25 6 0 10 -11 10 -25z m-2443 -82 c-3 -10 -5 -4 -5 12 0 17 2
24 5 18 2 -7 2 -21 0 -30z m2434 -4 c-9 -23 -10 -22 -10 11 -1 23 2 31 9 24 7
-7 7 -19 1 -35z m-2422 -66 c0 -25 -1 -26 -9 -8 -12 27 -12 35 0 35 6 0 10
-12 9 -27z m1194 -179 c37 -80 39 -82 99 -109 71 -32 77 -30 128 38 19 26 36
44 37 40 2 -5 14 -69 27 -143 l24 -135 -66 -278 -66 -277 -140 146 c-77 81
-149 158 -159 171 -19 24 -19 32 -3 371 9 191 16 356 17 367 0 20 24 -25 102
-191z m1227 194 c0 -17 -18 -44 -24 -37 -8 7 5 49 15 49 5 0 9 -6 9 -12z
m-2400 -95 c0 -7 -4 -13 -10 -13 -5 0 -10 12 -10 28 0 21 2 24 10 12 5 -8 10
-21 10 -27z m2371 -16 c-8 -8 -11 -4 -11 14 0 33 14 47 18 19 2 -12 -1 -27 -7
-33z m-2351 -65 c0 -7 -4 -10 -10 -7 -5 3 -10 16 -10 28 0 18 2 19 10 7 5 -8
10 -21 10 -28z m2343 18 c-3 -11 -9 -23 -14 -26 -10 -6 -12 29 -2 39 13 13 21
7 16 -13z m-970 -41 c17 -31 17 -32 -9 -66 l-26 -35 -29 44 c-32 48 -34 59
-17 76 23 23 62 14 81 -19z m-1353 -42 c0 -18 -2 -19 -10 -7 -13 20 -13 43 0
35 6 -3 10 -16 10 -28z m2300 21 c0 -19 -18 -43 -25 -36 -4 3 -2 16 5 27 12
24 20 27 20 9z m-2270 -98 c0 -13 -1 -13 -10 0 -5 8 -10 22 -10 30 0 13 1 13
10 0 5 -8 10 -22 10 -30z m2243 20 c-5 -20 -21 -36 -27 -29 -2 2 0 14 5 27 10
27 29 29 22 2z m-2205 -69 c3 -8 -1 -12 -9 -9 -7 2 -15 10 -17 17 -3 8 1 12 9
9 7 -2 15 -10 17 -17z m2172 10 c0 -5 -7 -14 -15 -21 -12 -10 -15 -10 -15 2 0
8 3 18 7 21 9 10 23 9 23 -2z"/>
<path d="M755 3019 c-143 -83 -266 -156 -273 -163 -9 -9 -12 -82 -10 -322 l3
-309 19 80 c71 306 228 582 450 793 42 39 75 72 74 72 -2 0 -120 -68 -263
-151z"/>
<path d="M3104 3067 c204 -207 337 -439 407 -711 l28 -111 -2 308 -2 308 -250
145 c-137 80 -257 149 -266 154 -8 5 30 -37 85 -93z"/>
<path d="M473 1396 l2 -320 80 -46 c44 -26 166 -96 270 -156 l190 -110 -100
101 c-208 210 -338 442 -415 739 l-29 111 2 -319z"/>
<path d="M3521 1618 c-43 -210 -171 -470 -319 -648 -25 -30 -82 -90 -126 -133
l-81 -79 145 84 c80 47 202 118 273 159 l127 74 0 302 c0 167 -1 303 -3 303
-2 0 -9 -28 -16 -62z"/>
<path d="M1495 488 c18 -14 439 -259 493 -287 21 -11 47 2 287 141 145 84 263
154 261 155 -1 2 -29 -6 -62 -17 -183 -63 -472 -87 -682 -56 -95 14 -214 43
-297 72 l-20 6 20 -14z"/>
</g>
</svg>
